<svg
          className="wave"
          xmlns="http://www.w3.org/2000/svg"
          viewBox="0 0 1440 320"
        >
          <path
            className="animated-svg"
            fill="#0099ff"
            fill-opacity="1"
            d="M0,96L0,128L36.9,128L36.9,288L73.8,288L73.8,224L110.8,224L110.8,64L147.7,64L147.7,32L184.6,32L184.6,64L221.5,64L221.5,32L258.5,32L258.5,224L295.4,224L295.4,128L332.3,128L332.3,96L369.2,96L369.2,128L406.2,128L406.2,224L443.1,224L443.1,224L480,224L480,256L516.9,256L516.9,160L553.8,160L553.8,160L590.8,160L590.8,160L627.7,160L627.7,96L664.6,96L664.6,288L701.5,288L701.5,96L738.5,96L738.5,160L775.4,160L775.4,160L812.3,160L812.3,0L849.2,0L849.2,224L886.2,224L886.2,320L923.1,320L923.1,224L960,224L960,192L996.9,192L996.9,0L1033.8,0L1033.8,224L1070.8,224L1070.8,160L1107.7,160L1107.7,160L1144.6,160L1144.6,64L1181.5,64L1181.5,160L1218.5,160L1218.5,288L1255.4,288L1255.4,192L1292.3,192L1292.3,224L1329.2,224L1329.2,192L1366.2,192L1366.2,288L1403.1,288L1403.1,32L1440,32L1440,320L1403.1,320L1403.1,320L1366.2,320L1366.2,320L1329.2,320L1329.2,320L1292.3,320L1292.3,320L1255.4,320L1255.4,320L1218.5,320L1218.5,320L1181.5,320L1181.5,320L1144.6,320L1144.6,320L1107.7,320L1107.7,320L1070.8,320L1070.8,320L1033.8,320L1033.8,320L996.9,320L996.9,320L960,320L960,320L923.1,320L923.1,320L886.2,320L886.2,320L849.2,320L849.2,320L812.3,320L812.3,320L775.4,320L775.4,320L738.5,320L738.5,320L701.5,320L701.5,320L664.6,320L664.6,320L627.7,320L627.7,320L590.8,320L590.8,320L553.8,320L553.8,320L516.9,320L516.9,320L480,320L480,320L443.1,320L443.1,320L406.2,320L406.2,320L369.2,320L369.2,320L332.3,320L332.3,320L295.4,320L295.4,320L258.5,320L258.5,320L221.5,320L221.5,320L184.6,320L184.6,320L147.7,320L147.7,320L110.8,320L110.8,320L73.8,320L73.8,320L36.9,320L36.9,320L0,320L0,320Z"
          ></path>
        </svg>
        