<svg xmlns="http://www.w3.org/2000/svg" viewBox="0 0 1440 320" ><path fill="#322978" fill-opacity="1" d="M0,96L0,128L36.9,128L36.9,288L73.8,288L73.8,224L110.8,224L110.8,64L147.7,64L147.7,32L184.6,32L184.6,64L221.5,64L221.5,32L258.5,32L258.5,224L295.4,224L295.4,128L332.3,128L332.3,96L369.2,96L369.2,128L406.2,128L406.2,224L443.1,224L443.1,224L480,224L480,256L516.9,256L516.9,160L553.8,160L553.8,160L590.8,160L590.8,160L627.7,160L627.7,96L664.6,96L664.6,288L701.5,288L701.5,96L738.5,96L738.5,160L775.4,160L775.4,160L812.3,160L812.3,0L849.2,0L849.2,224L886.2,224L886.2,320L923.1,320L923.1,224L960,224L960,192L996.9,192L996.9,0L1033.8,0L1033.8,224L1070.8,224L1070.8,160L1107.7,160L1107.7,160L1144.6,160L1144.6,64L1181.5,64L1181.5,160L1218.5,160L1218.5,288L1255.4,288L1255.4,192L1292.3,192L1292.3,224L1329.2,224L1329.2,192L1366.2,192L1366.2,288L1403.1,288L1403.1,32L1440,32L1440,0L1403.1,0L1403.1,0L1366.2,0L1366.2,0L1329.2,0L1329.2,0L1292.3,0L1292.3,0L1255.4,0L1255.4,0L1218.5,0L1218.5,0L1181.5,0L1181.5,0L1144.6,0L1144.6,0L1107.7,0L1107.7,0L1070.8,0L1070.8,0L1033.8,0L1033.8,0L996.9,0L996.9,0L960,0L960,0L923.1,0L923.1,0L886.2,0L886.2,0L849.2,0L849.2,0L812.3,0L812.3,0L775.4,0L775.4,0L738.5,0L738.5,0L701.5,0L701.5,0L664.6,0L664.6,0L627.7,0L627.7,0L590.8,0L590.8,0L553.8,0L553.8,0L516.9,0L516.9,0L480,0L480,0L443.1,0L443.1,0L406.2,0L406.2,0L369.2,0L369.2,0L332.3,0L332.3,0L295.4,0L295.4,0L258.5,0L258.5,0L221.5,0L221.5,0L184.6,0L184.6,0L147.7,0L147.7,0L110.8,0L110.8,0L73.8,0L73.8,0L36.9,0L36.9,0L0,0L0,0Z"></path></svg>
